<?xml version="1.0" standalone="no"?><!DOCTYPE svg PUBLIC "-//W3C//DTD SVG 1.1//EN" "http://www.w3.org/Graphics/SVG/1.1/DTD/svg11.dtd"><svg t="1635726622390" class="icon" viewBox="0 0 1024 1024" version="1.1" xmlns="http://www.w3.org/2000/svg" p-id="6929" xmlns:xlink="http://www.w3.org/1999/xlink" width="200" height="200"><defs><style type="text/css"></style></defs><path d="M177.166 951.13c-13.887 0-27.72-3.893-39.949-11.606-21.939-13.823-35.039-37.558-35.039-63.482V297.703c0-124.134 100.994-225.128 225.128-225.128H702.52c124.134 0 225.128 100.994 225.128 225.128v578.339c0 25.924-13.099 49.659-35.039 63.482-21.939 13.823-49.009 15.38-72.386 4.205l-305.31-146.027-305.319 146.026c-10.342 4.947-21.408 7.402-32.428 7.402z m150.14-803.513c-82.756 0-150.086 67.33-150.086 150.086v578.339l305.32-146.037c20.593-9.802 44.172-9.82 64.71-0.018l305.356 146.046v-578.33c0-82.756-67.33-150.086-150.086-150.086H327.306z" fill="#333333" p-id="6930"></path><path d="M723.36 501.386H285.598c-20.721 0-37.521-16.8-37.521-37.521s16.8-37.521 37.521-37.521H723.36c20.721 0 37.521 16.8 37.521 37.521s-16.8 37.521-37.521 37.521z" fill="#FF8844" p-id="6931"></path></svg>